# xmcd CD database file
#
# Track frame offsets:
#	150
#	22222
#	43372
#	65275
#	88400
#	111537
#	135190
#	158027
#	175665
#	203180
#	226430
#	244865
#	263817
#	297365
#
# Disc length: 4440 seconds
#
# Revision: 1
# Processed by: cddbd v1.5PL3 Copyright (c) Steve Scherf et al.
# Submitted via: CDex 1.51
#
DISCID=cf11560e
DTITLE=20th Century - Replay -Best of 20th Century- Disc1
DYEAR=2004
DGENRE=JPop
TTITLE0=ちぎれた翼
TTITLE1=Running to the top
TTITLE2=Knock me Real
TTITLE3=Dahlia
TTITLE4=ジンクス
TTITLE5=Precious Love
TTITLE6=クロール
TTITLE7=Working Man
TTITLE8=Lonely Holy Night
TTITLE9=OPEN THE GATE
TTITLE10=Take it easy
TTITLE11=GOAL
TTITLE12=WISHES 〜I'll be there〜
TTITLE13=CCCD
EXTD=YEAR: 2004
EXTT0=
EXTT1=
EXTT2=
EXTT3=
EXTT4=
EXTT5=
EXTT6=
EXTT7=
EXTT8=
EXTT9=
EXTT10=
EXTT11=
EXTT12=
EXTT13=
PLAYORDER=
